<mxfile host="app.diagrams.net" agent="Mozilla/5.0 (Macintosh; Intel Mac OS X 10_15_7) AppleWebKit/537.36 (KHTML, like Gecko) Chrome/130.0.0.0 Safari/537.36" version="24.8.3">
  <diagram id="C5RBs43oDa-KdzZeNtuy" name="Page-1">
    <mxGraphModel dx="1932" dy="584" grid="1" gridSize="10" guides="1" tooltips="1" connect="1" arrows="1" fold="1" page="1" pageScale="1" pageWidth="827" pageHeight="1169" math="0" shadow="0">
      <root>
        <mxCell id="WIyWlLk6GJQsqaUBKTNV-0" />
        <mxCell id="WIyWlLk6GJQsqaUBKTNV-1" parent="WIyWlLk6GJQsqaUBKTNV-0" />
        <mxCell id="WIyWlLk6GJQsqaUBKTNV-2" value="" style="rounded=0;html=1;jettySize=auto;orthogonalLoop=1;fontSize=11;endArrow=block;endFill=0;endSize=8;strokeWidth=1;shadow=0;labelBackgroundColor=none;edgeStyle=orthogonalEdgeStyle;" parent="WIyWlLk6GJQsqaUBKTNV-1" source="WIyWlLk6GJQsqaUBKTNV-3" target="WIyWlLk6GJQsqaUBKTNV-6" edge="1">
          <mxGeometry relative="1" as="geometry" />
        </mxCell>
        <mxCell id="WIyWlLk6GJQsqaUBKTNV-3" value="START" style="rounded=1;whiteSpace=wrap;html=1;fontSize=12;glass=0;strokeWidth=1;shadow=0;" parent="WIyWlLk6GJQsqaUBKTNV-1" vertex="1">
          <mxGeometry x="145" y="70" width="120" height="40" as="geometry" />
        </mxCell>
        <mxCell id="WIyWlLk6GJQsqaUBKTNV-4" value="Yes" style="rounded=0;html=1;jettySize=auto;orthogonalLoop=1;fontSize=11;endArrow=block;endFill=0;endSize=8;strokeWidth=1;shadow=0;labelBackgroundColor=none;edgeStyle=orthogonalEdgeStyle;" parent="WIyWlLk6GJQsqaUBKTNV-1" source="WIyWlLk6GJQsqaUBKTNV-6" target="WIyWlLk6GJQsqaUBKTNV-10" edge="1">
          <mxGeometry y="20" relative="1" as="geometry">
            <mxPoint as="offset" />
          </mxGeometry>
        </mxCell>
        <mxCell id="WIyWlLk6GJQsqaUBKTNV-5" value="No" style="edgeStyle=orthogonalEdgeStyle;rounded=0;html=1;jettySize=auto;orthogonalLoop=1;fontSize=11;endArrow=block;endFill=0;endSize=8;strokeWidth=1;shadow=0;labelBackgroundColor=none;entryX=0;entryY=0.5;entryDx=0;entryDy=0;" parent="WIyWlLk6GJQsqaUBKTNV-1" source="WIyWlLk6GJQsqaUBKTNV-6" target="1wQGFSgz_k6Tdv-VkuhE-3" edge="1">
          <mxGeometry y="10" relative="1" as="geometry">
            <mxPoint as="offset" />
            <mxPoint x="320" y="210" as="targetPoint" />
          </mxGeometry>
        </mxCell>
        <mxCell id="WIyWlLk6GJQsqaUBKTNV-6" value="apakah sudah memiliki akun?" style="rhombus;whiteSpace=wrap;html=1;shadow=0;fontFamily=Helvetica;fontSize=12;align=center;strokeWidth=1;spacing=6;spacingTop=-4;" parent="WIyWlLk6GJQsqaUBKTNV-1" vertex="1">
          <mxGeometry x="140" y="170" width="130" height="80" as="geometry" />
        </mxCell>
        <mxCell id="1wQGFSgz_k6Tdv-VkuhE-15" value="" style="edgeStyle=orthogonalEdgeStyle;rounded=0;orthogonalLoop=1;jettySize=auto;html=1;" edge="1" parent="WIyWlLk6GJQsqaUBKTNV-1" source="WIyWlLk6GJQsqaUBKTNV-10">
          <mxGeometry relative="1" as="geometry">
            <mxPoint x="205" y="490" as="targetPoint" />
          </mxGeometry>
        </mxCell>
        <mxCell id="1wQGFSgz_k6Tdv-VkuhE-17" value="" style="edgeStyle=orthogonalEdgeStyle;rounded=0;orthogonalLoop=1;jettySize=auto;html=1;" edge="1" parent="WIyWlLk6GJQsqaUBKTNV-1" source="WIyWlLk6GJQsqaUBKTNV-10" target="1wQGFSgz_k6Tdv-VkuhE-16">
          <mxGeometry relative="1" as="geometry" />
        </mxCell>
        <mxCell id="WIyWlLk6GJQsqaUBKTNV-10" value="LOGIN" style="rhombus;whiteSpace=wrap;html=1;shadow=0;fontFamily=Helvetica;fontSize=12;align=center;strokeWidth=1;spacing=6;spacingTop=-4;" parent="WIyWlLk6GJQsqaUBKTNV-1" vertex="1">
          <mxGeometry x="155" y="320" width="100" height="80" as="geometry" />
        </mxCell>
        <mxCell id="1wQGFSgz_k6Tdv-VkuhE-5" value="" style="edgeStyle=orthogonalEdgeStyle;rounded=0;orthogonalLoop=1;jettySize=auto;html=1;" edge="1" parent="WIyWlLk6GJQsqaUBKTNV-1" source="1wQGFSgz_k6Tdv-VkuhE-3" target="1wQGFSgz_k6Tdv-VkuhE-4">
          <mxGeometry relative="1" as="geometry" />
        </mxCell>
        <mxCell id="1wQGFSgz_k6Tdv-VkuhE-3" value="create account" style="rounded=0;whiteSpace=wrap;html=1;" vertex="1" parent="WIyWlLk6GJQsqaUBKTNV-1">
          <mxGeometry x="330" y="180" width="120" height="60" as="geometry" />
        </mxCell>
        <mxCell id="1wQGFSgz_k6Tdv-VkuhE-7" value="" style="edgeStyle=orthogonalEdgeStyle;rounded=0;orthogonalLoop=1;jettySize=auto;html=1;" edge="1" parent="WIyWlLk6GJQsqaUBKTNV-1" source="1wQGFSgz_k6Tdv-VkuhE-4">
          <mxGeometry relative="1" as="geometry">
            <mxPoint x="730" y="210" as="targetPoint" />
          </mxGeometry>
        </mxCell>
        <mxCell id="1wQGFSgz_k6Tdv-VkuhE-9" value="" style="edgeStyle=orthogonalEdgeStyle;rounded=0;orthogonalLoop=1;jettySize=auto;html=1;" edge="1" parent="WIyWlLk6GJQsqaUBKTNV-1" source="1wQGFSgz_k6Tdv-VkuhE-4" target="1wQGFSgz_k6Tdv-VkuhE-8">
          <mxGeometry relative="1" as="geometry" />
        </mxCell>
        <mxCell id="1wQGFSgz_k6Tdv-VkuhE-4" value="input formulir pendaftaran" style="shape=parallelogram;perimeter=parallelogramPerimeter;whiteSpace=wrap;html=1;fixedSize=1;rounded=0;" vertex="1" parent="WIyWlLk6GJQsqaUBKTNV-1">
          <mxGeometry x="520" y="180" width="120" height="60" as="geometry" />
        </mxCell>
        <mxCell id="1wQGFSgz_k6Tdv-VkuhE-8" value="pendaftaran&amp;nbsp;&lt;div&gt;berhasil&lt;/div&gt;" style="shape=parallelogram;perimeter=parallelogramPerimeter;whiteSpace=wrap;html=1;fixedSize=1;rounded=0;" vertex="1" parent="WIyWlLk6GJQsqaUBKTNV-1">
          <mxGeometry x="520" y="330" width="120" height="60" as="geometry" />
        </mxCell>
        <mxCell id="1wQGFSgz_k6Tdv-VkuhE-12" value="" style="endArrow=classic;html=1;rounded=0;entryX=1;entryY=0.5;entryDx=0;entryDy=0;" edge="1" parent="WIyWlLk6GJQsqaUBKTNV-1" source="1wQGFSgz_k6Tdv-VkuhE-8" target="WIyWlLk6GJQsqaUBKTNV-10">
          <mxGeometry width="50" height="50" relative="1" as="geometry">
            <mxPoint x="480" y="300" as="sourcePoint" />
            <mxPoint x="530" y="250" as="targetPoint" />
          </mxGeometry>
        </mxCell>
        <mxCell id="1wQGFSgz_k6Tdv-VkuhE-16" value="Pesan eror" style="shape=parallelogram;perimeter=parallelogramPerimeter;whiteSpace=wrap;html=1;fixedSize=1;shadow=0;strokeWidth=1;spacing=6;spacingTop=-4;" vertex="1" parent="WIyWlLk6GJQsqaUBKTNV-1">
          <mxGeometry x="-35" y="330" width="120" height="60" as="geometry" />
        </mxCell>
        <mxCell id="1wQGFSgz_k6Tdv-VkuhE-18" value="Berhasil" style="text;html=1;align=center;verticalAlign=middle;resizable=0;points=[];autosize=1;strokeColor=none;fillColor=none;" vertex="1" parent="WIyWlLk6GJQsqaUBKTNV-1">
          <mxGeometry x="212.5" y="428" width="70" height="30" as="geometry" />
        </mxCell>
        <mxCell id="1wQGFSgz_k6Tdv-VkuhE-19" value="Gagal" style="text;html=1;align=center;verticalAlign=middle;resizable=0;points=[];autosize=1;strokeColor=none;fillColor=none;" vertex="1" parent="WIyWlLk6GJQsqaUBKTNV-1">
          <mxGeometry x="90" y="328" width="60" height="30" as="geometry" />
        </mxCell>
        <mxCell id="1wQGFSgz_k6Tdv-VkuhE-22" value="" style="endArrow=classic;html=1;rounded=0;exitX=1;exitY=0.75;exitDx=0;exitDy=0;" edge="1" parent="WIyWlLk6GJQsqaUBKTNV-1" source="1wQGFSgz_k6Tdv-VkuhE-16">
          <mxGeometry width="50" height="50" relative="1" as="geometry">
            <mxPoint x="440" y="400" as="sourcePoint" />
            <mxPoint x="170" y="373" as="targetPoint" />
          </mxGeometry>
        </mxCell>
        <mxCell id="1wQGFSgz_k6Tdv-VkuhE-25" value="" style="edgeStyle=orthogonalEdgeStyle;rounded=0;orthogonalLoop=1;jettySize=auto;html=1;" edge="1" parent="WIyWlLk6GJQsqaUBKTNV-1" source="1wQGFSgz_k6Tdv-VkuhE-23" target="1wQGFSgz_k6Tdv-VkuhE-24">
          <mxGeometry relative="1" as="geometry" />
        </mxCell>
        <mxCell id="1wQGFSgz_k6Tdv-VkuhE-23" value="cari buku (judul, penulis kategori)" style="shape=parallelogram;perimeter=parallelogramPerimeter;whiteSpace=wrap;html=1;fixedSize=1;" vertex="1" parent="WIyWlLk6GJQsqaUBKTNV-1">
          <mxGeometry x="117.5" y="490" width="175" height="80" as="geometry" />
        </mxCell>
        <mxCell id="1wQGFSgz_k6Tdv-VkuhE-27" value="" style="edgeStyle=orthogonalEdgeStyle;rounded=0;orthogonalLoop=1;jettySize=auto;html=1;" edge="1" parent="WIyWlLk6GJQsqaUBKTNV-1" source="1wQGFSgz_k6Tdv-VkuhE-24" target="1wQGFSgz_k6Tdv-VkuhE-26">
          <mxGeometry relative="1" as="geometry" />
        </mxCell>
        <mxCell id="1wQGFSgz_k6Tdv-VkuhE-24" value="daftar buku ditampilkan" style="whiteSpace=wrap;html=1;" vertex="1" parent="WIyWlLk6GJQsqaUBKTNV-1">
          <mxGeometry x="145" y="660" width="120" height="60" as="geometry" />
        </mxCell>
        <mxCell id="1wQGFSgz_k6Tdv-VkuhE-29" value="" style="edgeStyle=orthogonalEdgeStyle;rounded=0;orthogonalLoop=1;jettySize=auto;html=1;" edge="1" parent="WIyWlLk6GJQsqaUBKTNV-1" source="1wQGFSgz_k6Tdv-VkuhE-26" target="1wQGFSgz_k6Tdv-VkuhE-28">
          <mxGeometry relative="1" as="geometry" />
        </mxCell>
        <mxCell id="1wQGFSgz_k6Tdv-VkuhE-26" value="user memilih buku untuk dipinjam" style="whiteSpace=wrap;html=1;" vertex="1" parent="WIyWlLk6GJQsqaUBKTNV-1">
          <mxGeometry x="145" y="800" width="120" height="60" as="geometry" />
        </mxCell>
        <mxCell id="1wQGFSgz_k6Tdv-VkuhE-31" value="" style="edgeStyle=orthogonalEdgeStyle;rounded=0;orthogonalLoop=1;jettySize=auto;html=1;" edge="1" parent="WIyWlLk6GJQsqaUBKTNV-1" source="1wQGFSgz_k6Tdv-VkuhE-28">
          <mxGeometry relative="1" as="geometry">
            <mxPoint y="1005" as="targetPoint" />
          </mxGeometry>
        </mxCell>
        <mxCell id="1wQGFSgz_k6Tdv-VkuhE-33" value="" style="edgeStyle=orthogonalEdgeStyle;rounded=0;orthogonalLoop=1;jettySize=auto;html=1;" edge="1" parent="WIyWlLk6GJQsqaUBKTNV-1" source="1wQGFSgz_k6Tdv-VkuhE-28" target="1wQGFSgz_k6Tdv-VkuhE-32">
          <mxGeometry relative="1" as="geometry" />
        </mxCell>
        <mxCell id="1wQGFSgz_k6Tdv-VkuhE-28" value="cek stok buku" style="rhombus;whiteSpace=wrap;html=1;" vertex="1" parent="WIyWlLk6GJQsqaUBKTNV-1">
          <mxGeometry x="152.5" y="950" width="105" height="110" as="geometry" />
        </mxCell>
        <mxCell id="1wQGFSgz_k6Tdv-VkuhE-40" value="" style="edgeStyle=orthogonalEdgeStyle;rounded=0;orthogonalLoop=1;jettySize=auto;html=1;" edge="1" parent="WIyWlLk6GJQsqaUBKTNV-1" source="1wQGFSgz_k6Tdv-VkuhE-32" target="1wQGFSgz_k6Tdv-VkuhE-39">
          <mxGeometry relative="1" as="geometry" />
        </mxCell>
        <mxCell id="1wQGFSgz_k6Tdv-VkuhE-32" value="&lt;div&gt;&lt;br&gt;&lt;/div&gt;Proses peminjaman buku:&lt;div&gt;Stok buku dikurangi satu&lt;/div&gt;&lt;div&gt;Buat entri baru dalam tabel peminjaman buku&lt;br&gt;&lt;div&gt;&lt;br&gt;&lt;/div&gt;&lt;/div&gt;" style="whiteSpace=wrap;html=1;" vertex="1" parent="WIyWlLk6GJQsqaUBKTNV-1">
          <mxGeometry x="70" y="1180" width="270" height="60" as="geometry" />
        </mxCell>
        <mxCell id="1wQGFSgz_k6Tdv-VkuhE-34" value="Ya (stok &amp;gt; 0)" style="text;html=1;align=center;verticalAlign=middle;resizable=0;points=[];autosize=1;strokeColor=none;fillColor=none;" vertex="1" parent="WIyWlLk6GJQsqaUBKTNV-1">
          <mxGeometry x="202.5" y="1090" width="90" height="30" as="geometry" />
        </mxCell>
        <mxCell id="1wQGFSgz_k6Tdv-VkuhE-35" value="Tidak (stok = 0)" style="text;html=1;align=center;verticalAlign=middle;resizable=0;points=[];autosize=1;strokeColor=none;fillColor=none;" vertex="1" parent="WIyWlLk6GJQsqaUBKTNV-1">
          <mxGeometry x="25" y="968" width="110" height="30" as="geometry" />
        </mxCell>
        <mxCell id="1wQGFSgz_k6Tdv-VkuhE-37" value="Tampilkan pesan &quot;Buku tidak tersedia sekarang&quot;&amp;nbsp;" style="shape=parallelogram;perimeter=parallelogramPerimeter;whiteSpace=wrap;html=1;fixedSize=1;" vertex="1" parent="WIyWlLk6GJQsqaUBKTNV-1">
          <mxGeometry x="-190" y="968" width="200" height="60" as="geometry" />
        </mxCell>
        <mxCell id="1wQGFSgz_k6Tdv-VkuhE-38" value="" style="endArrow=classic;html=1;rounded=0;exitX=0.5;exitY=0;exitDx=0;exitDy=0;" edge="1" parent="WIyWlLk6GJQsqaUBKTNV-1" source="1wQGFSgz_k6Tdv-VkuhE-37">
          <mxGeometry width="50" height="50" relative="1" as="geometry">
            <mxPoint x="160" y="860" as="sourcePoint" />
            <mxPoint x="145" y="680" as="targetPoint" />
            <Array as="points">
              <mxPoint x="-90" y="840" />
              <mxPoint x="-90" y="670" />
            </Array>
          </mxGeometry>
        </mxCell>
        <mxCell id="1wQGFSgz_k6Tdv-VkuhE-42" value="" style="edgeStyle=orthogonalEdgeStyle;rounded=0;orthogonalLoop=1;jettySize=auto;html=1;" edge="1" parent="WIyWlLk6GJQsqaUBKTNV-1" source="1wQGFSgz_k6Tdv-VkuhE-39" target="1wQGFSgz_k6Tdv-VkuhE-41">
          <mxGeometry relative="1" as="geometry" />
        </mxCell>
        <mxCell id="1wQGFSgz_k6Tdv-VkuhE-39" value="Peminjaman buku berhasil" style="whiteSpace=wrap;html=1;" vertex="1" parent="WIyWlLk6GJQsqaUBKTNV-1">
          <mxGeometry x="145" y="1320" width="120" height="60" as="geometry" />
        </mxCell>
        <mxCell id="1wQGFSgz_k6Tdv-VkuhE-51" value="" style="edgeStyle=orthogonalEdgeStyle;rounded=0;orthogonalLoop=1;jettySize=auto;html=1;" edge="1" parent="WIyWlLk6GJQsqaUBKTNV-1" source="1wQGFSgz_k6Tdv-VkuhE-41" target="1wQGFSgz_k6Tdv-VkuhE-50">
          <mxGeometry relative="1" as="geometry" />
        </mxCell>
        <mxCell id="1wQGFSgz_k6Tdv-VkuhE-41" value="Apakah inign logout?" style="rhombus;whiteSpace=wrap;html=1;" vertex="1" parent="WIyWlLk6GJQsqaUBKTNV-1">
          <mxGeometry x="152.5" y="1460" width="105" height="100" as="geometry" />
        </mxCell>
        <mxCell id="1wQGFSgz_k6Tdv-VkuhE-43" value="&lt;div&gt;&lt;br&gt;&lt;/div&gt;Muncul pesan&lt;div&gt;&amp;nbsp;&quot;Pendaftaran Gagal&quot;&lt;div&gt;&lt;br&gt;&lt;/div&gt;&lt;/div&gt;" style="shape=parallelogram;perimeter=parallelogramPerimeter;whiteSpace=wrap;html=1;fixedSize=1;" vertex="1" parent="WIyWlLk6GJQsqaUBKTNV-1">
          <mxGeometry x="720" y="180" width="170" height="60" as="geometry" />
        </mxCell>
        <mxCell id="1wQGFSgz_k6Tdv-VkuhE-44" value="Coba lagi" style="text;html=1;align=center;verticalAlign=middle;resizable=0;points=[];autosize=1;strokeColor=none;fillColor=none;" vertex="1" parent="WIyWlLk6GJQsqaUBKTNV-1">
          <mxGeometry x="85" y="368" width="70" height="30" as="geometry" />
        </mxCell>
        <mxCell id="1wQGFSgz_k6Tdv-VkuhE-47" value="Gagal" style="text;html=1;align=center;verticalAlign=middle;resizable=0;points=[];autosize=1;strokeColor=none;fillColor=none;" vertex="1" parent="WIyWlLk6GJQsqaUBKTNV-1">
          <mxGeometry x="650" y="178" width="60" height="30" as="geometry" />
        </mxCell>
        <mxCell id="1wQGFSgz_k6Tdv-VkuhE-48" value="Berhasil" style="text;html=1;align=center;verticalAlign=middle;resizable=0;points=[];autosize=1;strokeColor=none;fillColor=none;" vertex="1" parent="WIyWlLk6GJQsqaUBKTNV-1">
          <mxGeometry x="580" y="278" width="70" height="30" as="geometry" />
        </mxCell>
        <mxCell id="1wQGFSgz_k6Tdv-VkuhE-49" value="Ke menu login" style="text;html=1;align=center;verticalAlign=middle;resizable=0;points=[];autosize=1;strokeColor=none;fillColor=none;" vertex="1" parent="WIyWlLk6GJQsqaUBKTNV-1">
          <mxGeometry x="340" y="358" width="100" height="30" as="geometry" />
        </mxCell>
        <mxCell id="1wQGFSgz_k6Tdv-VkuhE-53" value="" style="edgeStyle=orthogonalEdgeStyle;rounded=0;orthogonalLoop=1;jettySize=auto;html=1;" edge="1" parent="WIyWlLk6GJQsqaUBKTNV-1" source="1wQGFSgz_k6Tdv-VkuhE-50" target="1wQGFSgz_k6Tdv-VkuhE-52">
          <mxGeometry relative="1" as="geometry" />
        </mxCell>
        <mxCell id="1wQGFSgz_k6Tdv-VkuhE-50" value="LOGOUT" style="rounded=1;whiteSpace=wrap;html=1;" vertex="1" parent="WIyWlLk6GJQsqaUBKTNV-1">
          <mxGeometry x="145" y="1660" width="120" height="60" as="geometry" />
        </mxCell>
        <mxCell id="1wQGFSgz_k6Tdv-VkuhE-52" value="END" style="rounded=1;whiteSpace=wrap;html=1;" vertex="1" parent="WIyWlLk6GJQsqaUBKTNV-1">
          <mxGeometry x="145" y="1800" width="120" height="60" as="geometry" />
        </mxCell>
        <mxCell id="1wQGFSgz_k6Tdv-VkuhE-54" value="Yes" style="text;html=1;align=center;verticalAlign=middle;resizable=0;points=[];autosize=1;strokeColor=none;fillColor=none;" vertex="1" parent="WIyWlLk6GJQsqaUBKTNV-1">
          <mxGeometry x="210" y="1588" width="40" height="30" as="geometry" />
        </mxCell>
        <mxCell id="1wQGFSgz_k6Tdv-VkuhE-56" value="" style="endArrow=classic;html=1;rounded=0;exitX=1;exitY=0.5;exitDx=0;exitDy=0;entryX=1;entryY=0.5;entryDx=0;entryDy=0;" edge="1" parent="WIyWlLk6GJQsqaUBKTNV-1" source="1wQGFSgz_k6Tdv-VkuhE-41" target="1wQGFSgz_k6Tdv-VkuhE-23">
          <mxGeometry width="50" height="50" relative="1" as="geometry">
            <mxPoint x="260" y="1510" as="sourcePoint" />
            <mxPoint x="540" y="700" as="targetPoint" />
            <Array as="points">
              <mxPoint x="540" y="1510" />
              <mxPoint x="540" y="530" />
            </Array>
          </mxGeometry>
        </mxCell>
        <mxCell id="1wQGFSgz_k6Tdv-VkuhE-57" value="Cari buku lain" style="text;html=1;align=center;verticalAlign=middle;resizable=0;points=[];autosize=1;strokeColor=none;fillColor=none;" vertex="1" parent="WIyWlLk6GJQsqaUBKTNV-1">
          <mxGeometry x="540" y="968" width="100" height="30" as="geometry" />
        </mxCell>
        <mxCell id="1wQGFSgz_k6Tdv-VkuhE-59" value="" style="endArrow=classic;html=1;rounded=0;exitX=0.059;exitY=0.667;exitDx=0;exitDy=0;entryX=1;entryY=0.75;entryDx=0;entryDy=0;exitPerimeter=0;" edge="1" parent="WIyWlLk6GJQsqaUBKTNV-1" source="1wQGFSgz_k6Tdv-VkuhE-43" target="1wQGFSgz_k6Tdv-VkuhE-4">
          <mxGeometry width="50" height="50" relative="1" as="geometry">
            <mxPoint x="300" y="320" as="sourcePoint" />
            <mxPoint x="350" y="270" as="targetPoint" />
          </mxGeometry>
        </mxCell>
        <mxCell id="1wQGFSgz_k6Tdv-VkuhE-60" value="Coba lagi" style="text;html=1;align=center;verticalAlign=middle;resizable=0;points=[];autosize=1;strokeColor=none;fillColor=none;" vertex="1" parent="WIyWlLk6GJQsqaUBKTNV-1">
          <mxGeometry x="635" y="218" width="70" height="30" as="geometry" />
        </mxCell>
      </root>
    </mxGraphModel>
  </diagram>
</mxfile>
